<svg width="1108" height="709" viewBox="0 0 1108 709" fill="none" xmlns="http://www.w3.org/2000/svg">
<path d="M1108 608.391H0V608.945H1108V608.391Z" fill="#58585F"/>
<path d="M996.98 644.059H923.582V644.613H996.98V644.059Z" fill="#58585F"/>
<path d="M733.986 650.074H714.723V650.628H733.986V650.074Z" fill="#58585F"/>
<path d="M921.362 623.482H878.832V624.036H921.362V623.482Z" fill="#58585F"/>
<path d="M211.966 627.205H116.25V627.759H211.966V627.205Z" fill="#58585F"/>
<path d="M245.729 627.205H231.695V627.759H245.729V627.205Z" fill="#58585F"/>
<path d="M498.93 636.562H291.344V637.117H498.93V636.562Z" fill="#58585F"/>
<path d="M943.605 0H565V361.997H943.605V0Z" fill="#131219"/>
<path d="M937.529 6.57422H565V355.684H937.529V6.57422Z" fill="#1E1E25"/>
<path d="M934.78 271.136V166.13H923.782V152.261L899.034 140.778V126.581H894.91V166.13H890.787V271.136H885.286V216.587H872.914V187.95H868.789V271.136H859.166V239.771H852.291V231.588H837.168V202.95H828.919V183.858H819.295V155.221H815.171V183.858H805.547V202.95H797.3V231.588H782.175V239.771H775.302V271.136H767.053V231.588H751.93V144.31H747.806V134.764H714.81V144.31H707.937V207.042H680.44V213.859H670.817V217.951H680.44V242.497H651.568V160.675H646.069V144.31H632.321V81.5801H628.196V144.31H618.572V160.675H565V355.686H937.531V271.136H934.78Z" fill="#131219"/>
<path d="M597.512 164.951H593.617V168.815H597.512V164.951Z" fill="#1E1E25"/>
<path d="M597.512 171.426H593.617V175.289H597.512V171.426Z" fill="#1E1E25"/>
<path d="M597.512 197.34H593.617V201.203H597.512V197.34Z" fill="#1E1E25"/>
<path d="M597.512 203.816H593.617V207.68H597.512V203.816Z" fill="#1E1E25"/>
<path d="M597.512 210.299H593.617V214.162H597.512V210.299Z" fill="#1E1E25"/>
<path d="M597.512 229.729H593.617V233.592H597.512V229.729Z" fill="#1E1E25"/>
<path d="M597.512 236.205H593.617V240.069H597.512V236.205Z" fill="#1E1E25"/>
<path d="M603.7 190.861H599.805V194.725H603.7V190.861Z" fill="#1E1E25"/>
<path d="M603.7 197.34H599.805V201.203H603.7V197.34Z" fill="#1E1E25"/>
<path d="M603.7 203.816H599.805V207.68H603.7V203.816Z" fill="#1E1E25"/>
<path d="M603.7 210.299H599.805V214.162H603.7V210.299Z" fill="#1E1E25"/>
<path d="M603.7 216.773H599.805V220.637H603.7V216.773Z" fill="#1E1E25"/>
<path d="M603.7 229.729H599.805V233.592H603.7V229.729Z" fill="#1E1E25"/>
<path d="M603.7 236.205H599.805V240.069H603.7V236.205Z" fill="#1E1E25"/>
<path d="M609.887 164.951H605.992V168.815H609.887V164.951Z" fill="#1E1E25"/>
<path d="M609.887 171.426H605.992V175.289H609.887V171.426Z" fill="#1E1E25"/>
<path d="M609.887 177.908H605.992V181.772H609.887V177.908Z" fill="#1E1E25"/>
<path d="M609.887 184.385H605.992V188.248H609.887V184.385Z" fill="#1E1E25"/>
<path d="M609.887 190.861H605.992V194.725H609.887V190.861Z" fill="#1E1E25"/>
<path d="M609.887 197.34H605.992V201.203H609.887V197.34Z" fill="#1E1E25"/>
<path d="M609.887 203.816H605.992V207.68H609.887V203.816Z" fill="#1E1E25"/>
<path d="M609.887 210.299H605.992V214.162H609.887V210.299Z" fill="#1E1E25"/>
<path d="M609.887 216.773H605.992V220.637H609.887V216.773Z" fill="#1E1E25"/>
<path d="M609.887 223.25H605.992V227.114H609.887V223.25Z" fill="#1E1E25"/>
<path d="M609.887 236.205H605.992V240.069H609.887V236.205Z" fill="#1E1E25"/>
<path d="M616.075 164.951H612.18V168.815H616.075V164.951Z" fill="#1E1E25"/>
<path d="M616.075 171.426H612.18V175.289H616.075V171.426Z" fill="#1E1E25"/>
<path d="M616.075 177.908H612.18V181.772H616.075V177.908Z" fill="#1E1E25"/>
<path d="M616.075 184.385H612.18V188.248H616.075V184.385Z" fill="#1E1E25"/>
<path d="M616.075 190.861H612.18V194.725H616.075V190.861Z" fill="#1E1E25"/>
<path d="M616.075 197.34H612.18V201.203H616.075V197.34Z" fill="#1E1E25"/>
<path d="M616.075 203.816H612.18V207.68H616.075V203.816Z" fill="#1E1E25"/>
<path d="M616.075 262.119H612.18V265.983H616.075V262.119Z" fill="#1E1E25"/>
<path d="M622.254 164.951H618.359V168.815H622.254V164.951Z" fill="#1E1E25"/>
<path d="M622.254 171.426H618.359V175.289H622.254V171.426Z" fill="#1E1E25"/>
<path d="M622.254 177.908H618.359V181.772H622.254V177.908Z" fill="#1E1E25"/>
<path d="M622.254 184.385H618.359V188.248H622.254V184.385Z" fill="#1E1E25"/>
<path d="M622.254 190.861H618.359V194.725H622.254V190.861Z" fill="#1E1E25"/>
<path d="M622.254 197.34H618.359V201.203H622.254V197.34Z" fill="#1E1E25"/>
<path d="M622.254 203.816H618.359V207.68H622.254V203.816Z" fill="#1E1E25"/>
<path d="M622.254 210.299H618.359V214.162H622.254V210.299Z" fill="#1E1E25"/>
<path d="M622.254 249.164H618.359V253.028H622.254V249.164Z" fill="#1E1E25"/>
<path d="M622.254 255.639H618.359V259.502H622.254V255.639Z" fill="#1E1E25"/>
<path d="M622.254 262.119H618.359V265.983H622.254V262.119Z" fill="#1E1E25"/>
<path d="M622.254 268.596H618.359V272.459H622.254V268.596Z" fill="#1E1E25"/>
<path d="M622.254 294.504H618.359V298.367H622.254V294.504Z" fill="#1E1E25"/>
<path d="M628.438 164.951H624.543V168.815H628.438V164.951Z" fill="#1E1E25"/>
<path d="M628.438 171.426H624.543V175.289H628.438V171.426Z" fill="#1E1E25"/>
<path d="M628.438 177.908H624.543V181.772H628.438V177.908Z" fill="#1E1E25"/>
<path d="M628.438 184.385H624.543V188.248H628.438V184.385Z" fill="#1E1E25"/>
<path d="M628.438 190.861H624.543V194.725H628.438V190.861Z" fill="#1E1E25"/>
<path d="M628.438 197.34H624.543V201.203H628.438V197.34Z" fill="#1E1E25"/>
<path d="M628.438 203.816H624.543V207.68H628.438V203.816Z" fill="#1E1E25"/>
<path d="M628.438 210.299H624.543V214.162H628.438V210.299Z" fill="#1E1E25"/>
<path d="M628.438 216.773H624.543V220.637H628.438V216.773Z" fill="#1E1E25"/>
<path d="M628.438 223.25H624.543V227.114H628.438V223.25Z" fill="#1E1E25"/>
<path d="M628.438 242.686H624.543V246.549H628.438V242.686Z" fill="#1E1E25"/>
<path d="M628.438 249.164H624.543V253.028H628.438V249.164Z" fill="#1E1E25"/>
<path d="M628.438 255.639H624.543V259.502H628.438V255.639Z" fill="#1E1E25"/>
<path d="M628.438 262.119H624.543V265.983H628.438V262.119Z" fill="#1E1E25"/>
<path d="M628.438 268.596H624.543V272.459H628.438V268.596Z" fill="#1E1E25"/>
<path d="M628.438 294.504H624.543V298.367H628.438V294.504Z" fill="#1E1E25"/>
<path d="M634.633 164.951H630.738V168.815H634.633V164.951Z" fill="#1E1E25"/>
<path d="M634.633 171.426H630.738V175.289H634.633V171.426Z" fill="#1E1E25"/>
<path d="M634.633 177.908H630.738V181.772H634.633V177.908Z" fill="#1E1E25"/>
<path d="M634.633 184.385H630.738V188.248H634.633V184.385Z" fill="#1E1E25"/>
<path d="M634.633 190.861H630.738V194.725H634.633V190.861Z" fill="#1E1E25"/>
<path d="M634.633 197.34H630.738V201.203H634.633V197.34Z" fill="#1E1E25"/>
<path d="M634.633 203.816H630.738V207.68H634.633V203.816Z" fill="#1E1E25"/>
<path d="M634.633 210.299H630.738V214.162H634.633V210.299Z" fill="#1E1E25"/>
<path d="M634.633 216.773H630.738V220.637H634.633V216.773Z" fill="#1E1E25"/>
<path d="M634.633 223.25H630.738V227.114H634.633V223.25Z" fill="#1E1E25"/>
<path d="M634.633 229.729H630.738V233.592H634.633V229.729Z" fill="#1E1E25"/>
<path d="M634.633 236.205H630.738V240.069H634.633V236.205Z" fill="#1E1E25"/>
<path d="M634.633 242.686H630.738V246.549H634.633V242.686Z" fill="#1E1E25"/>
<path d="M634.633 249.164H630.738V253.028H634.633V249.164Z" fill="#1E1E25"/>
<path d="M634.633 255.639H630.738V259.502H634.633V255.639Z" fill="#1E1E25"/>
<path d="M634.633 262.119H630.738V265.983H634.633V262.119Z" fill="#1E1E25"/>
<path d="M634.633 268.596H630.738V272.459H634.633V268.596Z" fill="#1E1E25"/>
<path d="M634.633 275.07H630.738V278.934H634.633V275.07Z" fill="#1E1E25"/>
<path d="M640.813 164.951H636.918V168.815H640.813V164.951Z" fill="#1E1E25"/>
<path d="M640.813 171.426H636.918V175.289H640.813V171.426Z" fill="#1E1E25"/>
<path d="M640.813 177.908H636.918V181.772H640.813V177.908Z" fill="#1E1E25"/>
<path d="M640.813 184.385H636.918V188.248H640.813V184.385Z" fill="#1E1E25"/>
<path d="M640.813 190.861H636.918V194.725H640.813V190.861Z" fill="#1E1E25"/>
<path d="M640.813 197.34H636.918V201.203H640.813V197.34Z" fill="#1E1E25"/>
<path d="M640.813 203.816H636.918V207.68H640.813V203.816Z" fill="#1E1E25"/>
<path d="M640.813 210.299H636.918V214.162H640.813V210.299Z" fill="#1E1E25"/>
<path d="M640.813 216.773H636.918V220.637H640.813V216.773Z" fill="#1E1E25"/>
<path d="M640.813 223.25H636.918V227.114H640.813V223.25Z" fill="#1E1E25"/>
<path d="M640.813 242.686H636.918V246.549H640.813V242.686Z" fill="#1E1E25"/>
<path d="M640.813 249.164H636.918V253.028H640.813V249.164Z" fill="#1E1E25"/>
<path d="M640.813 255.639H636.918V259.502H640.813V255.639Z" fill="#1E1E25"/>
<path d="M640.813 262.119H636.918V265.983H640.813V262.119Z" fill="#1E1E25"/>
<path d="M647.004 164.951H643.109V168.815H647.004V164.951Z" fill="#1E1E25"/>
<path d="M647.004 171.426H643.109V175.289H647.004V171.426Z" fill="#1E1E25"/>
<path d="M647.004 177.908H643.109V181.772H647.004V177.908Z" fill="#1E1E25"/>
<path d="M647.004 184.385H643.109V188.248H647.004V184.385Z" fill="#1E1E25"/>
<path d="M647.004 190.861H643.109V194.725H647.004V190.861Z" fill="#1E1E25"/>
<path d="M647.004 197.34H643.109V201.203H647.004V197.34Z" fill="#1E1E25"/>
<path d="M647.004 203.816H643.109V207.68H647.004V203.816Z" fill="#1E1E25"/>
<path d="M647.004 210.299H643.109V214.162H647.004V210.299Z" fill="#1E1E25"/>
<path d="M647.004 216.773H643.109V220.637H647.004V216.773Z" fill="#1E1E25"/>
<path d="M647.004 223.25H643.109V227.114H647.004V223.25Z" fill="#1E1E25"/>
<path d="M647.004 242.686H643.109V246.549H647.004V242.686Z" fill="#1E1E25"/>
<path d="M647.004 249.164H643.109V253.028H647.004V249.164Z" fill="#1E1E25"/>
<path d="M647.004 255.639H643.109V259.502H647.004V255.639Z" fill="#1E1E25"/>
<path d="M716.668 148.133H712.773V151.996H716.668V148.133Z" fill="#1E1E25"/>
<path d="M716.668 154.609H712.773V158.473H716.668V154.609Z" fill="#1E1E25"/>
<path d="M716.668 161.086H712.773V164.95H716.668V161.086Z" fill="#1E1E25"/>
<path d="M716.668 167.568H712.773V171.432H716.668V167.568Z" fill="#1E1E25"/>
<path d="M716.668 174.043H712.773V177.907H716.668V174.043Z" fill="#1E1E25"/>
<path d="M716.668 180.521H712.773V184.385H716.668V180.521Z" fill="#1E1E25"/>
<path d="M716.668 187H712.773V190.864H716.668V187Z" fill="#1E1E25"/>
<path d="M716.668 193.477H712.773V197.34H716.668V193.477Z" fill="#1E1E25"/>
<path d="M716.668 212.91H712.773V216.774H716.668V212.91Z" fill="#1E1E25"/>
<path d="M716.668 219.387H712.773V223.25H716.668V219.387Z" fill="#1E1E25"/>
<path d="M722.852 148.133H718.957V151.996H722.852V148.133Z" fill="#1E1E25"/>
<path d="M722.852 154.609H718.957V158.473H722.852V154.609Z" fill="#1E1E25"/>
<path d="M722.852 161.086H718.957V164.95H722.852V161.086Z" fill="#1E1E25"/>
<path d="M722.852 167.568H718.957V171.432H722.852V167.568Z" fill="#1E1E25"/>
<path d="M722.852 174.043H718.957V177.907H722.852V174.043Z" fill="#1E1E25"/>
<path d="M722.852 180.521H718.957V184.385H722.852V180.521Z" fill="#1E1E25"/>
<path d="M722.852 187H718.957V190.864H722.852V187Z" fill="#1E1E25"/>
<path d="M722.852 193.477H718.957V197.34H722.852V193.477Z" fill="#1E1E25"/>
<path d="M722.852 219.387H718.957V223.25H722.852V219.387Z" fill="#1E1E25"/>
<path d="M729.036 148.133H725.141V151.996H729.036V148.133Z" fill="#1E1E25"/>
<path d="M729.036 154.609H725.141V158.473H729.036V154.609Z" fill="#1E1E25"/>
<path d="M729.036 161.086H725.141V164.95H729.036V161.086Z" fill="#1E1E25"/>
<path d="M729.036 167.568H725.141V171.432H729.036V167.568Z" fill="#1E1E25"/>
<path d="M729.036 174.043H725.141V177.907H729.036V174.043Z" fill="#1E1E25"/>
<path d="M729.036 180.521H725.141V184.385H729.036V180.521Z" fill="#1E1E25"/>
<path d="M729.036 187H725.141V190.864H729.036V187Z" fill="#1E1E25"/>
<path d="M729.036 193.477H725.141V197.34H729.036V193.477Z" fill="#1E1E25"/>
<path d="M735.219 148.133H731.324V151.996H735.219V148.133Z" fill="#1E1E25"/>
<path d="M735.219 154.609H731.324V158.473H735.219V154.609Z" fill="#1E1E25"/>
<path d="M735.219 161.086H731.324V164.95H735.219V161.086Z" fill="#1E1E25"/>
<path d="M735.219 167.568H731.324V171.432H735.219V167.568Z" fill="#1E1E25"/>
<path d="M735.219 174.043H731.324V177.907H735.219V174.043Z" fill="#1E1E25"/>
<path d="M735.219 180.521H731.324V184.385H735.219V180.521Z" fill="#1E1E25"/>
<path d="M735.219 193.477H731.324V197.34H735.219V193.477Z" fill="#1E1E25"/>
<path d="M735.219 199.951H731.324V203.815H735.219V199.951Z" fill="#1E1E25"/>
<path d="M735.219 219.387H731.324V223.25H735.219V219.387Z" fill="#1E1E25"/>
<path d="M735.219 225.863H731.324V229.727H735.219V225.863Z" fill="#1E1E25"/>
<path d="M735.219 232.342H731.324V236.205H735.219V232.342Z" fill="#1E1E25"/>
<path d="M735.219 238.82H731.324V242.684H735.219V238.82Z" fill="#1E1E25"/>
<path d="M735.219 245.299H731.324V249.162H735.219V245.299Z" fill="#1E1E25"/>
<path d="M735.219 251.773H731.324V255.637H735.219V251.773Z" fill="#1E1E25"/>
<path d="M735.219 258.252H731.324V262.116H735.219V258.252Z" fill="#1E1E25"/>
<path d="M741.411 148.133H737.516V151.996H741.411V148.133Z" fill="#1E1E25"/>
<path d="M741.411 154.609H737.516V158.473H741.411V154.609Z" fill="#1E1E25"/>
<path d="M741.411 161.086H737.516V164.95H741.411V161.086Z" fill="#1E1E25"/>
<path d="M741.411 167.568H737.516V171.432H741.411V167.568Z" fill="#1E1E25"/>
<path d="M741.411 174.043H737.516V177.907H741.411V174.043Z" fill="#1E1E25"/>
<path d="M741.411 180.521H737.516V184.385H741.411V180.521Z" fill="#1E1E25"/>
<path d="M741.411 199.951H737.516V203.815H741.411V199.951Z" fill="#1E1E25"/>
<path d="M741.411 206.436H737.516V210.299H741.411V206.436Z" fill="#1E1E25"/>
<path d="M741.411 212.91H737.516V216.774H741.411V212.91Z" fill="#1E1E25"/>
<path d="M741.411 219.387H737.516V223.25H741.411V219.387Z" fill="#1E1E25"/>
<path d="M741.411 225.863H737.516V229.727H741.411V225.863Z" fill="#1E1E25"/>
<path d="M741.411 232.342H737.516V236.205H741.411V232.342Z" fill="#1E1E25"/>
<path d="M741.411 238.82H737.516V242.684H741.411V238.82Z" fill="#1E1E25"/>
<path d="M741.411 245.299H737.516V249.162H741.411V245.299Z" fill="#1E1E25"/>
<path d="M741.411 251.773H737.516V255.637H741.411V251.773Z" fill="#1E1E25"/>
<path d="M741.411 258.252H737.516V262.116H741.411V258.252Z" fill="#1E1E25"/>
<path d="M741.411 264.729H737.516V268.592H741.411V264.729Z" fill="#1E1E25"/>
<path d="M741.411 277.688H737.516V281.551H741.411V277.688Z" fill="#1E1E25"/>
<path d="M747.598 148.133H743.703V151.996H747.598V148.133Z" fill="#1E1E25"/>
<path d="M747.598 154.609H743.703V158.473H747.598V154.609Z" fill="#1E1E25"/>
<path d="M747.598 161.086H743.703V164.95H747.598V161.086Z" fill="#1E1E25"/>
<path d="M747.598 167.568H743.703V171.432H747.598V167.568Z" fill="#1E1E25"/>
<path d="M747.598 174.043H743.703V177.907H747.598V174.043Z" fill="#1E1E25"/>
<path d="M747.598 180.521H743.703V184.385H747.598V180.521Z" fill="#1E1E25"/>
<path d="M747.598 199.951H743.703V203.815H747.598V199.951Z" fill="#1E1E25"/>
<path d="M747.598 206.436H743.703V210.299H747.598V206.436Z" fill="#1E1E25"/>
<path d="M747.598 212.91H743.703V216.774H747.598V212.91Z" fill="#1E1E25"/>
<path d="M747.598 219.387H743.703V223.25H747.598V219.387Z" fill="#1E1E25"/>
<path d="M747.598 238.82H743.703V242.684H747.598V238.82Z" fill="#1E1E25"/>
<path d="M747.598 245.299H743.703V249.162H747.598V245.299Z" fill="#1E1E25"/>
<path d="M747.598 251.773H743.703V255.637H747.598V251.773Z" fill="#1E1E25"/>
<path d="M747.598 258.252H743.703V262.116H747.598V258.252Z" fill="#1E1E25"/>
<path d="M747.598 264.729H743.703V268.592H747.598V264.729Z" fill="#1E1E25"/>
<path d="M747.598 277.688H743.703V281.551H747.598V277.688Z" fill="#1E1E25"/>
<path d="M747.598 284.164H743.703V288.028H747.598V284.164Z" fill="#1E1E25"/>
<path d="M803.735 208.365H799.84V212.229H803.735V208.365Z" fill="#1E1E25"/>
<path d="M803.735 214.842H799.84V218.705H803.735V214.842Z" fill="#1E1E25"/>
<path d="M803.735 221.318H799.84V225.182H803.735V221.318Z" fill="#1E1E25"/>
<path d="M803.735 227.797H799.84V231.66H803.735V227.797Z" fill="#1E1E25"/>
<path d="M803.735 234.273H799.84V238.137H803.735V234.273Z" fill="#1E1E25"/>
<path d="M803.735 240.754H799.84V244.617H803.735V240.754Z" fill="#1E1E25"/>
<path d="M803.735 247.23H799.84V251.094H803.735V247.23Z" fill="#1E1E25"/>
<path d="M803.735 266.662H799.84V270.526H803.735V266.662Z" fill="#1E1E25"/>
<path d="M803.735 273.141H799.84V277.004H803.735V273.141Z" fill="#1E1E25"/>
<path d="M803.735 279.619H799.84V283.483H803.735V279.619Z" fill="#1E1E25"/>
<path d="M809.922 208.365H806.027V212.229H809.922V208.365Z" fill="#1E1E25"/>
<path d="M809.922 214.842H806.027V218.705H809.922V214.842Z" fill="#1E1E25"/>
<path d="M809.922 221.318H806.027V225.182H809.922V221.318Z" fill="#1E1E25"/>
<path d="M809.922 227.797H806.027V231.66H809.922V227.797Z" fill="#1E1E25"/>
<path d="M809.922 234.273H806.027V238.137H809.922V234.273Z" fill="#1E1E25"/>
<path d="M809.922 240.754H806.027V244.617H809.922V240.754Z" fill="#1E1E25"/>
<path d="M809.922 247.23H806.027V251.094H809.922V247.23Z" fill="#1E1E25"/>
<path d="M816.106 208.365H812.211V212.229H816.106V208.365Z" fill="#1E1E25"/>
<path d="M816.106 214.842H812.211V218.705H816.106V214.842Z" fill="#1E1E25"/>
<path d="M816.106 221.318H812.211V225.182H816.106V221.318Z" fill="#1E1E25"/>
<path d="M816.106 227.797H812.211V231.66H816.106V227.797Z" fill="#1E1E25"/>
<path d="M816.106 234.273H812.211V238.137H816.106V234.273Z" fill="#1E1E25"/>
<path d="M816.106 240.754H812.211V244.617H816.106V240.754Z" fill="#1E1E25"/>
<path d="M816.106 247.23H812.211V251.094H816.106V247.23Z" fill="#1E1E25"/>
<path d="M822.293 208.365H818.398V212.229H822.293V208.365Z" fill="#1E1E25"/>
<path d="M822.293 214.842H818.398V218.705H822.293V214.842Z" fill="#1E1E25"/>
<path d="M822.293 221.318H818.398V225.182H822.293V221.318Z" fill="#1E1E25"/>
<path d="M822.293 227.797H818.398V231.66H822.293V227.797Z" fill="#1E1E25"/>
<path d="M822.293 234.273H818.398V238.137H822.293V234.273Z" fill="#1E1E25"/>
<path d="M822.293 240.754H818.398V244.617H822.293V240.754Z" fill="#1E1E25"/>
<path d="M822.293 247.23H818.398V251.094H822.293V247.23Z" fill="#1E1E25"/>
<path d="M822.293 253.707H818.398V257.571H822.293V253.707Z" fill="#1E1E25"/>
<path d="M822.293 260.184H818.398V264.047H822.293V260.184Z" fill="#1E1E25"/>
<path d="M822.293 266.662H818.398V270.526H822.293V266.662Z" fill="#1E1E25"/>
<path d="M822.293 273.141H818.398V277.004H822.293V273.141Z" fill="#1E1E25"/>
<path d="M828.477 208.365H824.582V212.229H828.477V208.365Z" fill="#1E1E25"/>
<path d="M828.477 214.842H824.582V218.705H828.477V214.842Z" fill="#1E1E25"/>
<path d="M828.477 221.318H824.582V225.182H828.477V221.318Z" fill="#1E1E25"/>
<path d="M828.477 227.797H824.582V231.66H828.477V227.797Z" fill="#1E1E25"/>
<path d="M828.477 234.273H824.582V238.137H828.477V234.273Z" fill="#1E1E25"/>
<path d="M828.477 240.754H824.582V244.617H828.477V240.754Z" fill="#1E1E25"/>
<path d="M828.477 247.23H824.582V251.094H828.477V247.23Z" fill="#1E1E25"/>
<path d="M828.477 253.707H824.582V257.571H828.477V253.707Z" fill="#1E1E25"/>
<path d="M828.477 260.184H824.582V264.047H828.477V260.184Z" fill="#1E1E25"/>
<path d="M828.477 266.662H824.582V270.526H828.477V266.662Z" fill="#1E1E25"/>
<path d="M828.477 273.141H824.582V277.004H828.477V273.141Z" fill="#1E1E25"/>
<path d="M828.477 279.619H824.582V283.483H828.477V279.619Z" fill="#1E1E25"/>
<path d="M828.477 299.051H824.582V302.914H828.477V299.051Z" fill="#1E1E25"/>
<path d="M828.477 305.529H824.582V309.393H828.477V305.529Z" fill="#1E1E25"/>
<path d="M834.668 208.365H830.773V212.229H834.668V208.365Z" fill="#1E1E25"/>
<path d="M834.668 214.842H830.773V218.705H834.668V214.842Z" fill="#1E1E25"/>
<path d="M834.668 221.318H830.773V225.182H834.668V221.318Z" fill="#1E1E25"/>
<path d="M834.668 240.754H830.773V244.617H834.668V240.754Z" fill="#1E1E25"/>
<path d="M834.668 247.23H830.773V251.094H834.668V247.23Z" fill="#1E1E25"/>
<path d="M834.668 253.707H830.773V257.571H834.668V253.707Z" fill="#1E1E25"/>
<path d="M834.668 260.184H830.773V264.047H834.668V260.184Z" fill="#1E1E25"/>
<path d="M834.668 266.662H830.773V270.526H834.668V266.662Z" fill="#1E1E25"/>
<path d="M834.668 273.141H830.773V277.004H834.668V273.141Z" fill="#1E1E25"/>
<path d="M834.668 279.619H830.773V283.483H834.668V279.619Z" fill="#1E1E25"/>
<path d="M834.668 299.051H830.773V302.914H834.668V299.051Z" fill="#1E1E25"/>
<path d="M834.668 305.529H830.773V309.393H834.668V305.529Z" fill="#1E1E25"/>
<path d="M834.668 312.004H830.773V315.867H834.668V312.004Z" fill="#1E1E25"/>
<path d="M899.508 169.5H895.613V173.364H899.508V169.5Z" fill="#1E1E25"/>
<path d="M899.508 175.977H895.613V179.84H899.508V175.977Z" fill="#1E1E25"/>
<path d="M899.508 182.453H895.613V186.317H899.508V182.453Z" fill="#1E1E25"/>
<path d="M899.508 188.93H895.613V192.793H899.508V188.93Z" fill="#1E1E25"/>
<path d="M899.508 195.406H895.613V199.27H899.508V195.406Z" fill="#1E1E25"/>
<path d="M899.508 201.883H895.613V205.746H899.508V201.883Z" fill="#1E1E25"/>
<path d="M899.508 208.365H895.613V212.229H899.508V208.365Z" fill="#1E1E25"/>
<path d="M899.508 214.842H895.613V218.705H899.508V214.842Z" fill="#1E1E25"/>
<path d="M899.508 221.318H895.613V225.182H899.508V221.318Z" fill="#1E1E25"/>
<path d="M899.508 227.797H895.613V231.66H899.508V227.797Z" fill="#1E1E25"/>
<path d="M899.508 234.273H895.613V238.137H899.508V234.273Z" fill="#1E1E25"/>
<path d="M899.508 240.754H895.613V244.617H899.508V240.754Z" fill="#1E1E25"/>
<path d="M899.508 247.23H895.613V251.094H899.508V247.23Z" fill="#1E1E25"/>
<path d="M899.508 253.707H895.613V257.571H899.508V253.707Z" fill="#1E1E25"/>
<path d="M899.508 260.184H895.613V264.047H899.508V260.184Z" fill="#1E1E25"/>
<path d="M899.508 266.662H895.613V270.526H899.508V266.662Z" fill="#1E1E25"/>
<path d="M899.508 273.141H895.613V277.004H899.508V273.141Z" fill="#1E1E25"/>
<path d="M899.508 279.619H895.613V283.483H899.508V279.619Z" fill="#1E1E25"/>
<path d="M899.508 286.096H895.613V289.959H899.508V286.096Z" fill="#1E1E25"/>
<path d="M899.508 292.574H895.613V296.438H899.508V292.574Z" fill="#1E1E25"/>
<path d="M899.508 299.051H895.613V302.914H899.508V299.051Z" fill="#1E1E25"/>
<path d="M899.508 305.529H895.613V309.393H899.508V305.529Z" fill="#1E1E25"/>
<path d="M899.508 312.004H895.613V315.867H899.508V312.004Z" fill="#1E1E25"/>
<path d="M905.7 169.5H901.805V173.364H905.7V169.5Z" fill="#1E1E25"/>
<path d="M905.7 175.977H901.805V179.84H905.7V175.977Z" fill="#1E1E25"/>
<path d="M905.7 182.453H901.805V186.317H905.7V182.453Z" fill="#1E1E25"/>
<path d="M905.7 188.93H901.805V192.793H905.7V188.93Z" fill="#1E1E25"/>
<path d="M905.7 195.406H901.805V199.27H905.7V195.406Z" fill="#1E1E25"/>
<path d="M905.7 201.883H901.805V205.746H905.7V201.883Z" fill="#1E1E25"/>
<path d="M905.7 208.365H901.805V212.229H905.7V208.365Z" fill="#1E1E25"/>
<path d="M905.7 214.842H901.805V218.705H905.7V214.842Z" fill="#1E1E25"/>
<path d="M905.7 221.318H901.805V225.182H905.7V221.318Z" fill="#1E1E25"/>
<path d="M905.7 227.797H901.805V231.66H905.7V227.797Z" fill="#1E1E25"/>
<path d="M905.7 234.273H901.805V238.137H905.7V234.273Z" fill="#1E1E25"/>
<path d="M905.7 240.754H901.805V244.617H905.7V240.754Z" fill="#1E1E25"/>
<path d="M905.7 247.23H901.805V251.094H905.7V247.23Z" fill="#1E1E25"/>
<path d="M905.7 253.707H901.805V257.571H905.7V253.707Z" fill="#1E1E25"/>
<path d="M905.7 260.184H901.805V264.047H905.7V260.184Z" fill="#1E1E25"/>
<path d="M905.7 266.662H901.805V270.526H905.7V266.662Z" fill="#1E1E25"/>
<path d="M905.7 273.141H901.805V277.004H905.7V273.141Z" fill="#1E1E25"/>
<path d="M905.7 279.619H901.805V283.483H905.7V279.619Z" fill="#1E1E25"/>
<path d="M905.7 286.096H901.805V289.959H905.7V286.096Z" fill="#1E1E25"/>
<path d="M911.883 169.5H907.988V173.364H911.883V169.5Z" fill="#1E1E25"/>
<path d="M911.883 175.977H907.988V179.84H911.883V175.977Z" fill="#1E1E25"/>
<path d="M911.883 182.453H907.988V186.317H911.883V182.453Z" fill="#1E1E25"/>
<path d="M911.883 188.93H907.988V192.793H911.883V188.93Z" fill="#1E1E25"/>
<path d="M911.883 195.406H907.988V199.27H911.883V195.406Z" fill="#1E1E25"/>
<path d="M911.883 201.883H907.988V205.746H911.883V201.883Z" fill="#1E1E25"/>
<path d="M911.883 208.365H907.988V212.229H911.883V208.365Z" fill="#1E1E25"/>
<path d="M911.883 214.842H907.988V218.705H911.883V214.842Z" fill="#1E1E25"/>
<path d="M911.883 221.318H907.988V225.182H911.883V221.318Z" fill="#1E1E25"/>
<path d="M911.883 227.797H907.988V231.66H911.883V227.797Z" fill="#1E1E25"/>
<path d="M911.883 234.273H907.988V238.137H911.883V234.273Z" fill="#1E1E25"/>
<path d="M911.883 240.754H907.988V244.617H911.883V240.754Z" fill="#1E1E25"/>
<path d="M911.883 247.23H907.988V251.094H911.883V247.23Z" fill="#1E1E25"/>
<path d="M911.883 253.707H907.988V257.571H911.883V253.707Z" fill="#1E1E25"/>
<path d="M911.883 260.184H907.988V264.047H911.883V260.184Z" fill="#1E1E25"/>
<path d="M911.883 266.662H907.988V270.526H911.883V266.662Z" fill="#1E1E25"/>
<path d="M911.883 273.141H907.988V277.004H911.883V273.141Z" fill="#1E1E25"/>
<path d="M911.883 279.619H907.988V283.483H911.883V279.619Z" fill="#1E1E25"/>
<path d="M911.883 286.096H907.988V289.959H911.883V286.096Z" fill="#1E1E25"/>
<path d="M918.075 169.5H914.18V173.364H918.075V169.5Z" fill="#1E1E25"/>
<path d="M918.075 175.977H914.18V179.84H918.075V175.977Z" fill="#1E1E25"/>
<path d="M918.075 182.453H914.18V186.317H918.075V182.453Z" fill="#1E1E25"/>
<path d="M918.075 188.93H914.18V192.793H918.075V188.93Z" fill="#1E1E25"/>
<path d="M918.075 195.406H914.18V199.27H918.075V195.406Z" fill="#1E1E25"/>
<path d="M918.075 201.883H914.18V205.746H918.075V201.883Z" fill="#1E1E25"/>
<path d="M918.075 208.365H914.18V212.229H918.075V208.365Z" fill="#1E1E25"/>
<path d="M918.075 214.842H914.18V218.705H918.075V214.842Z" fill="#1E1E25"/>
<path d="M918.075 221.318H914.18V225.182H918.075V221.318Z" fill="#1E1E25"/>
<path d="M918.075 227.797H914.18V231.66H918.075V227.797Z" fill="#1E1E25"/>
<path d="M918.075 234.273H914.18V238.137H918.075V234.273Z" fill="#1E1E25"/>
<path d="M918.075 240.754H914.18V244.617H918.075V240.754Z" fill="#1E1E25"/>
<path d="M918.075 247.23H914.18V251.094H918.075V247.23Z" fill="#1E1E25"/>
<path d="M918.075 253.707H914.18V257.571H918.075V253.707Z" fill="#1E1E25"/>
<path d="M918.075 260.184H914.18V264.047H918.075V260.184Z" fill="#1E1E25"/>
<path d="M924.262 169.5H920.367V173.364H924.262V169.5Z" fill="#1E1E25"/>
<path d="M924.262 175.977H920.367V179.84H924.262V175.977Z" fill="#1E1E25"/>
<path d="M924.262 182.453H920.367V186.317H924.262V182.453Z" fill="#1E1E25"/>
<path d="M924.262 188.93H920.367V192.793H924.262V188.93Z" fill="#1E1E25"/>
<path d="M924.262 195.406H920.367V199.27H924.262V195.406Z" fill="#1E1E25"/>
<path d="M924.262 201.883H920.367V205.746H924.262V201.883Z" fill="#1E1E25"/>
<path d="M924.262 208.365H920.367V212.229H924.262V208.365Z" fill="#1E1E25"/>
<path d="M924.262 214.842H920.367V218.705H924.262V214.842Z" fill="#1E1E25"/>
<path d="M924.262 221.318H920.367V225.182H924.262V221.318Z" fill="#1E1E25"/>
<path d="M924.262 227.797H920.367V231.66H924.262V227.797Z" fill="#1E1E25"/>
<path d="M924.262 234.273H920.367V238.137H924.262V234.273Z" fill="#1E1E25"/>
<path d="M924.262 240.754H920.367V244.617H924.262V240.754Z" fill="#1E1E25"/>
<path d="M924.262 247.23H920.367V251.094H924.262V247.23Z" fill="#1E1E25"/>
<path d="M930.442 169.5H926.547V173.364H930.442V169.5Z" fill="#1E1E25"/>
<path d="M930.442 175.977H926.547V179.84H930.442V175.977Z" fill="#1E1E25"/>
<path d="M930.442 182.453H926.547V186.317H930.442V182.453Z" fill="#1E1E25"/>
<path d="M930.442 188.93H926.547V192.793H930.442V188.93Z" fill="#1E1E25"/>
<path d="M930.442 195.406H926.547V199.27H930.442V195.406Z" fill="#1E1E25"/>
<path d="M930.442 201.883H926.547V205.746H930.442V201.883Z" fill="#1E1E25"/>
<path d="M930.442 208.365H926.547V212.229H930.442V208.365Z" fill="#1E1E25"/>
<path d="M930.442 214.842H926.547V218.705H930.442V214.842Z" fill="#1E1E25"/>
<path d="M930.442 221.318H926.547V225.182H930.442V221.318Z" fill="#1E1E25"/>
<path d="M930.442 227.797H926.547V231.66H930.442V227.797Z" fill="#1E1E25"/>
<path d="M930.442 234.273H926.547V238.137H930.442V234.273Z" fill="#1E1E25"/>
<path d="M930.442 240.754H926.547V244.617H930.442V240.754Z" fill="#1E1E25"/>
<path d="M569.329 167.568H565.434V171.432H569.329V167.568Z" fill="#1E1E25"/>
<path d="M569.329 174.043H565.434V177.907H569.329V174.043Z" fill="#1E1E25"/>
<path d="M569.329 180.521H565.434V184.385H569.329V180.521Z" fill="#1E1E25"/>
<path d="M569.329 187H565.434V190.864H569.329V187Z" fill="#1E1E25"/>
<path d="M569.329 193.477H565.434V197.34H569.329V193.477Z" fill="#1E1E25"/>
<path d="M569.329 199.951H565.434V203.815H569.329V199.951Z" fill="#1E1E25"/>
<path d="M569.329 206.436H565.434V210.299H569.329V206.436Z" fill="#1E1E25"/>
<path d="M569.329 212.91H565.434V216.774H569.329V212.91Z" fill="#1E1E25"/>
<path d="M569.329 219.387H565.434V223.25H569.329V219.387Z" fill="#1E1E25"/>
<path d="M569.329 225.863H565.434V229.727H569.329V225.863Z" fill="#1E1E25"/>
<path d="M569.329 232.342H565.434V236.205H569.329V232.342Z" fill="#1E1E25"/>
<path d="M569.329 238.82H565.434V242.684H569.329V238.82Z" fill="#1E1E25"/>
<path d="M569.329 245.299H565.434V249.162H569.329V245.299Z" fill="#1E1E25"/>
<path d="M569.329 251.773H565.434V255.637H569.329V251.773Z" fill="#1E1E25"/>
<path d="M569.329 258.252H565.434V262.116H569.329V258.252Z" fill="#1E1E25"/>
<path d="M569.329 264.729H565.434V268.592H569.329V264.729Z" fill="#1E1E25"/>
<path d="M569.329 271.207H565.434V275.071H569.329V271.207Z" fill="#1E1E25"/>
<path d="M569.329 284.164H565.434V288.028H569.329V284.164Z" fill="#1E1E25"/>
<path d="M569.329 290.639H565.434V294.502H569.329V290.639Z" fill="#1E1E25"/>
<path d="M569.329 297.117H565.434V300.981H569.329V297.117Z" fill="#1E1E25"/>
<path d="M569.329 303.598H565.434V307.461H569.329V303.598Z" fill="#1E1E25"/>
<path d="M569.329 310.074H565.434V313.938H569.329V310.074Z" fill="#1E1E25"/>
<path d="M575.512 167.568H571.617V171.432H575.512V167.568Z" fill="#1E1E25"/>
<path d="M575.512 174.043H571.617V177.907H575.512V174.043Z" fill="#1E1E25"/>
<path d="M575.512 180.521H571.617V184.385H575.512V180.521Z" fill="#1E1E25"/>
<path d="M575.512 187H571.617V190.864H575.512V187Z" fill="#1E1E25"/>
<path d="M575.512 193.477H571.617V197.34H575.512V193.477Z" fill="#1E1E25"/>
<path d="M575.512 199.951H571.617V203.815H575.512V199.951Z" fill="#1E1E25"/>
<path d="M575.512 206.436H571.617V210.299H575.512V206.436Z" fill="#1E1E25"/>
<path d="M575.512 212.91H571.617V216.774H575.512V212.91Z" fill="#1E1E25"/>
<path d="M575.512 219.387H571.617V223.25H575.512V219.387Z" fill="#1E1E25"/>
<path d="M575.512 225.863H571.617V229.727H575.512V225.863Z" fill="#1E1E25"/>
<path d="M575.512 232.342H571.617V236.205H575.512V232.342Z" fill="#1E1E25"/>
<path d="M575.512 238.82H571.617V242.684H575.512V238.82Z" fill="#1E1E25"/>
<path d="M575.512 245.299H571.617V249.162H575.512V245.299Z" fill="#1E1E25"/>
<path d="M575.512 251.773H571.617V255.637H575.512V251.773Z" fill="#1E1E25"/>
<path d="M575.512 258.252H571.617V262.116H575.512V258.252Z" fill="#1E1E25"/>
<path d="M575.512 264.729H571.617V268.592H575.512V264.729Z" fill="#1E1E25"/>
<path d="M575.512 303.598H571.617V307.461H575.512V303.598Z" fill="#1E1E25"/>
<path d="M575.512 310.074H571.617V313.938H575.512V310.074Z" fill="#1E1E25"/>
<path d="M581.7 167.568H577.805V171.432H581.7V167.568Z" fill="#1E1E25"/>
<path d="M581.7 174.043H577.805V177.907H581.7V174.043Z" fill="#1E1E25"/>
<path d="M581.7 180.521H577.805V184.385H581.7V180.521Z" fill="#1E1E25"/>
<path d="M581.7 187H577.805V190.864H581.7V187Z" fill="#1E1E25"/>
<path d="M581.7 193.477H577.805V197.34H581.7V193.477Z" fill="#1E1E25"/>
<path d="M581.7 199.951H577.805V203.815H581.7V199.951Z" fill="#1E1E25"/>
<path d="M581.7 206.436H577.805V210.299H581.7V206.436Z" fill="#1E1E25"/>
<path d="M581.7 212.91H577.805V216.774H581.7V212.91Z" fill="#1E1E25"/>
<path d="M581.7 219.387H577.805V223.25H581.7V219.387Z" fill="#1E1E25"/>
<path d="M581.7 225.863H577.805V229.727H581.7V225.863Z" fill="#1E1E25"/>
<path d="M581.7 232.342H577.805V236.205H581.7V232.342Z" fill="#1E1E25"/>
<path d="M581.7 238.82H577.805V242.684H581.7V238.82Z" fill="#1E1E25"/>
<path d="M581.7 245.299H577.805V249.162H581.7V245.299Z" fill="#1E1E25"/>
<path d="M581.7 251.773H577.805V255.637H581.7V251.773Z" fill="#1E1E25"/>
<path d="M581.7 258.252H577.805V262.116H581.7V258.252Z" fill="#1E1E25"/>
<path d="M581.7 264.729H577.805V268.592H581.7V264.729Z" fill="#1E1E25"/>
<path d="M581.7 277.688H577.805V281.551H581.7V277.688Z" fill="#1E1E25"/>
<path d="M581.7 284.164H577.805V288.028H581.7V284.164Z" fill="#1E1E25"/>
<path d="M581.7 290.639H577.805V294.502H581.7V290.639Z" fill="#1E1E25"/>
<path d="M581.7 297.117H577.805V300.981H581.7V297.117Z" fill="#1E1E25"/>
<path d="M581.7 310.074H577.805V313.938H581.7V310.074Z" fill="#1E1E25"/>
<path d="M689.622 212.91H685.727V216.774H689.622V212.91Z" fill="#1E1E25"/>
<path d="M689.622 219.387H685.727V223.25H689.622V219.387Z" fill="#1E1E25"/>
<path d="M689.622 225.863H685.727V229.727H689.622V225.863Z" fill="#1E1E25"/>
<path d="M689.622 232.342H685.727V236.205H689.622V232.342Z" fill="#1E1E25"/>
<path d="M689.622 238.82H685.727V242.684H689.622V238.82Z" fill="#1E1E25"/>
<path d="M689.622 245.299H685.727V249.162H689.622V245.299Z" fill="#1E1E25"/>
<path d="M689.622 251.773H685.727V255.637H689.622V251.773Z" fill="#1E1E25"/>
<path d="M689.622 258.252H685.727V262.116H689.622V258.252Z" fill="#1E1E25"/>
<path d="M689.622 264.729H685.727V268.592H689.622V264.729Z" fill="#1E1E25"/>
<path d="M689.622 271.207H685.727V275.071H689.622V271.207Z" fill="#1E1E25"/>
<path d="M689.622 277.688H685.727V281.551H689.622V277.688Z" fill="#1E1E25"/>
<path d="M689.622 284.164H685.727V288.028H689.622V284.164Z" fill="#1E1E25"/>
<path d="M689.622 290.639H685.727V294.502H689.622V290.639Z" fill="#1E1E25"/>
<path d="M689.622 303.598H685.727V307.461H689.622V303.598Z" fill="#1E1E25"/>
<path d="M689.622 310.074H685.727V313.938H689.622V310.074Z" fill="#1E1E25"/>
<path d="M689.622 316.553H685.727V320.416H689.622V316.553Z" fill="#1E1E25"/>
<path d="M689.622 323.031H685.727V326.895H689.622V323.031Z" fill="#1E1E25"/>
<path d="M689.622 335.984H685.727V339.848H689.622V335.984Z" fill="#1E1E25"/>
<path d="M689.622 342.461H685.727V346.325H689.622V342.461Z" fill="#1E1E25"/>
<path d="M689.622 348.941H685.727V352.805H689.622V348.941Z" fill="#1E1E25"/>
<path d="M695.813 212.91H691.918V216.774H695.813V212.91Z" fill="#1E1E25"/>
<path d="M695.813 219.387H691.918V223.25H695.813V219.387Z" fill="#1E1E25"/>
<path d="M695.813 225.863H691.918V229.727H695.813V225.863Z" fill="#1E1E25"/>
<path d="M695.813 232.342H691.918V236.205H695.813V232.342Z" fill="#1E1E25"/>
<path d="M695.813 238.82H691.918V242.684H695.813V238.82Z" fill="#1E1E25"/>
<path d="M695.813 245.299H691.918V249.162H695.813V245.299Z" fill="#1E1E25"/>
<path d="M695.813 251.773H691.918V255.637H695.813V251.773Z" fill="#1E1E25"/>
<path d="M695.813 258.252H691.918V262.116H695.813V258.252Z" fill="#1E1E25"/>
<path d="M695.813 264.729H691.918V268.592H695.813V264.729Z" fill="#1E1E25"/>
<path d="M695.813 271.207H691.918V275.071H695.813V271.207Z" fill="#1E1E25"/>
<path d="M695.813 277.688H691.918V281.551H695.813V277.688Z" fill="#1E1E25"/>
<path d="M695.813 284.164H691.918V288.028H695.813V284.164Z" fill="#1E1E25"/>
<path d="M695.813 290.639H691.918V294.502H695.813V290.639Z" fill="#1E1E25"/>
<path d="M695.813 310.074H691.918V313.938H695.813V310.074Z" fill="#1E1E25"/>
<path d="M695.813 316.553H691.918V320.416H695.813V316.553Z" fill="#1E1E25"/>
<path d="M695.813 329.508H691.918V333.371H695.813V329.508Z" fill="#1E1E25"/>
<path d="M695.813 335.984H691.918V339.848H695.813V335.984Z" fill="#1E1E25"/>
<path d="M695.813 342.461H691.918V346.325H695.813V342.461Z" fill="#1E1E25"/>
<path d="M695.813 348.941H691.918V352.805H695.813V348.941Z" fill="#1E1E25"/>
<path d="M702.001 212.91H698.105V216.774H702.001V212.91Z" fill="#1E1E25"/>
<path d="M702.001 219.387H698.105V223.25H702.001V219.387Z" fill="#1E1E25"/>
<path d="M702.001 225.863H698.105V229.727H702.001V225.863Z" fill="#1E1E25"/>
<path d="M702.001 232.342H698.105V236.205H702.001V232.342Z" fill="#1E1E25"/>
<path d="M702.001 238.82H698.105V242.684H702.001V238.82Z" fill="#1E1E25"/>
<path d="M702.001 245.299H698.105V249.162H702.001V245.299Z" fill="#1E1E25"/>
<path d="M702.001 251.773H698.105V255.637H702.001V251.773Z" fill="#1E1E25"/>
<path d="M702.001 258.252H698.105V262.116H702.001V258.252Z" fill="#1E1E25"/>
<path d="M702.001 264.729H698.105V268.592H702.001V264.729Z" fill="#1E1E25"/>
<path d="M702.001 271.207H698.105V275.071H702.001V271.207Z" fill="#1E1E25"/>
<path d="M702.001 277.688H698.105V281.551H702.001V277.688Z" fill="#1E1E25"/>
<path d="M702.001 284.164H698.105V288.028H702.001V284.164Z" fill="#1E1E25"/>
<path d="M702.001 290.639H698.105V294.502H702.001V290.639Z" fill="#1E1E25"/>
<path d="M702.001 297.117H698.105V300.981H702.001V297.117Z" fill="#1E1E25"/>
<path d="M702.001 310.074H698.105V313.938H702.001V310.074Z" fill="#1E1E25"/>
<path d="M702.001 323.031H698.105V326.895H702.001V323.031Z" fill="#1E1E25"/>
<path d="M702.001 329.508H698.105V333.371H702.001V329.508Z" fill="#1E1E25"/>
<path d="M702.001 335.984H698.105V339.848H702.001V335.984Z" fill="#1E1E25"/>
<path d="M702.001 342.461H698.105V346.325H702.001V342.461Z" fill="#1E1E25"/>
<path d="M702.001 348.941H698.105V352.805H702.001V348.941Z" fill="#1E1E25"/>
<path d="M664.418 249.844H660.523V253.707H664.418V249.844Z" fill="#1E1E25"/>
<path d="M664.418 256.318H660.523V260.182H664.418V256.318Z" fill="#1E1E25"/>
<path d="M664.418 262.799H660.523V266.662H664.418V262.799Z" fill="#1E1E25"/>
<path d="M664.418 269.277H660.523V273.141H664.418V269.277Z" fill="#1E1E25"/>
<path d="M664.418 275.754H660.523V279.617H664.418V275.754Z" fill="#1E1E25"/>
<path d="M664.418 282.232H660.523V286.096H664.418V282.232Z" fill="#1E1E25"/>
<path d="M664.418 301.662H660.523V305.526H664.418V301.662Z" fill="#1E1E25"/>
<path d="M664.418 308.143H660.523V312.006H664.418V308.143Z" fill="#1E1E25"/>
<path d="M664.418 314.619H660.523V318.483H664.418V314.619Z" fill="#1E1E25"/>
<path d="M664.418 321.098H660.523V324.961H664.418V321.098Z" fill="#1E1E25"/>
<path d="M664.418 327.572H660.523V331.436H664.418V327.572Z" fill="#1E1E25"/>
<path d="M664.418 334.055H660.523V337.918H664.418V334.055Z" fill="#1E1E25"/>
<path d="M664.418 340.529H660.523V344.393H664.418V340.529Z" fill="#1E1E25"/>
<path d="M670.606 249.844H666.711V253.707H670.606V249.844Z" fill="#1E1E25"/>
<path d="M670.606 256.318H666.711V260.182H670.606V256.318Z" fill="#1E1E25"/>
<path d="M670.606 262.799H666.711V266.662H670.606V262.799Z" fill="#1E1E25"/>
<path d="M670.606 269.277H666.711V273.141H670.606V269.277Z" fill="#1E1E25"/>
<path d="M670.606 275.754H666.711V279.617H670.606V275.754Z" fill="#1E1E25"/>
<path d="M670.606 282.232H666.711V286.096H670.606V282.232Z" fill="#1E1E25"/>
<path d="M670.606 301.662H666.711V305.526H670.606V301.662Z" fill="#1E1E25"/>
<path d="M670.606 308.143H666.711V312.006H670.606V308.143Z" fill="#1E1E25"/>
<path d="M670.606 314.619H666.711V318.483H670.606V314.619Z" fill="#1E1E25"/>
<path d="M670.606 321.098H666.711V324.961H670.606V321.098Z" fill="#1E1E25"/>
<path d="M670.606 327.572H666.711V331.436H670.606V327.572Z" fill="#1E1E25"/>
<path d="M670.606 334.055H666.711V337.918H670.606V334.055Z" fill="#1E1E25"/>
<path d="M670.606 347.008H666.711V350.871H670.606V347.008Z" fill="#1E1E25"/>
<path d="M876.141 221.318H872.246V225.182H876.141V221.318Z" fill="#1E1E25"/>
<path d="M876.141 227.797H872.246V231.66H876.141V227.797Z" fill="#1E1E25"/>
<path d="M876.141 234.273H872.246V238.137H876.141V234.273Z" fill="#1E1E25"/>
<path d="M876.141 240.754H872.246V244.617H876.141V240.754Z" fill="#1E1E25"/>
<path d="M876.141 247.23H872.246V251.094H876.141V247.23Z" fill="#1E1E25"/>
<path d="M876.141 253.707H872.246V257.571H876.141V253.707Z" fill="#1E1E25"/>
<path d="M876.141 260.184H872.246V264.047H876.141V260.184Z" fill="#1E1E25"/>
<path d="M876.141 266.662H872.246V270.526H876.141V266.662Z" fill="#1E1E25"/>
<path d="M876.141 273.141H872.246V277.004H876.141V273.141Z" fill="#1E1E25"/>
<path d="M876.141 279.619H872.246V283.483H876.141V279.619Z" fill="#1E1E25"/>
<path d="M876.141 286.096H872.246V289.959H876.141V286.096Z" fill="#1E1E25"/>
<path d="M876.141 299.051H872.246V302.914H876.141V299.051Z" fill="#1E1E25"/>
<path d="M876.141 305.529H872.246V309.393H876.141V305.529Z" fill="#1E1E25"/>
<path d="M876.141 312.004H872.246V315.867H876.141V312.004Z" fill="#1E1E25"/>
<path d="M876.141 318.484H872.246V322.348H876.141V318.484Z" fill="#1E1E25"/>
<path d="M876.141 324.961H872.246V328.824H876.141V324.961Z" fill="#1E1E25"/>
<path d="M876.141 331.438H872.246V335.301H876.141V331.438Z" fill="#1E1E25"/>
<path d="M876.141 337.914H872.246V341.778H876.141V337.914Z" fill="#1E1E25"/>
<path d="M876.141 344.395H872.246V348.258H876.141V344.395Z" fill="#1E1E25"/>
<path d="M882.329 221.318H878.434V225.182H882.329V221.318Z" fill="#1E1E25"/>
<path d="M882.329 227.797H878.434V231.66H882.329V227.797Z" fill="#1E1E25"/>
<path d="M882.329 234.273H878.434V238.137H882.329V234.273Z" fill="#1E1E25"/>
<path d="M882.329 240.754H878.434V244.617H882.329V240.754Z" fill="#1E1E25"/>
<path d="M882.329 247.23H878.434V251.094H882.329V247.23Z" fill="#1E1E25"/>
<path d="M882.329 253.707H878.434V257.571H882.329V253.707Z" fill="#1E1E25"/>
<path d="M882.329 260.184H878.434V264.047H882.329V260.184Z" fill="#1E1E25"/>
<path d="M882.329 266.662H878.434V270.526H882.329V266.662Z" fill="#1E1E25"/>
<path d="M882.329 273.141H878.434V277.004H882.329V273.141Z" fill="#1E1E25"/>
<path d="M882.329 279.619H878.434V283.483H882.329V279.619Z" fill="#1E1E25"/>
<path d="M882.329 286.096H878.434V289.959H882.329V286.096Z" fill="#1E1E25"/>
<path d="M882.329 292.574H878.434V296.438H882.329V292.574Z" fill="#1E1E25"/>
<path d="M882.329 299.051H878.434V302.914H882.329V299.051Z" fill="#1E1E25"/>
<path d="M882.329 305.529H878.434V309.393H882.329V305.529Z" fill="#1E1E25"/>
<path d="M882.329 312.004H878.434V315.867H882.329V312.004Z" fill="#1E1E25"/>
<path d="M882.329 318.484H878.434V322.348H882.329V318.484Z" fill="#1E1E25"/>
<path d="M882.329 324.961H878.434V328.824H882.329V324.961Z" fill="#1E1E25"/>
<path d="M882.329 331.438H878.434V335.301H882.329V331.438Z" fill="#1E1E25"/>
<path d="M882.329 337.914H878.434V341.778H882.329V337.914Z" fill="#1E1E25"/>
<path d="M882.329 344.395H878.434V348.258H882.329V344.395Z" fill="#1E1E25"/>
<path d="M845.665 246.545H841.77V250.408H845.665V246.545Z" fill="#1E1E25"/>
<path d="M845.665 253.025H841.77V256.889H845.665V253.025Z" fill="#1E1E25"/>
<path d="M845.665 259.504H841.77V263.367H845.665V259.504Z" fill="#1E1E25"/>
<path d="M845.665 265.98H841.77V269.844H845.665V265.98Z" fill="#1E1E25"/>
<path d="M845.665 272.459H841.77V276.323H845.665V272.459Z" fill="#1E1E25"/>
<path d="M845.665 278.934H841.77V282.797H845.665V278.934Z" fill="#1E1E25"/>
<path d="M845.665 285.412H841.77V289.276H845.665V285.412Z" fill="#1E1E25"/>
<path d="M845.665 291.889H841.77V295.752H845.665V291.889Z" fill="#1E1E25"/>
<path d="M845.665 298.371H841.77V302.235H845.665V298.371Z" fill="#1E1E25"/>
<path d="M845.665 304.846H841.77V308.709H845.665V304.846Z" fill="#1E1E25"/>
<path d="M851.852 246.545H847.957V250.408H851.852V246.545Z" fill="#1E1E25"/>
<path d="M851.852 253.025H847.957V256.889H851.852V253.025Z" fill="#1E1E25"/>
<path d="M851.852 259.504H847.957V263.367H851.852V259.504Z" fill="#1E1E25"/>
<path d="M851.852 265.98H847.957V269.844H851.852V265.98Z" fill="#1E1E25"/>
<path d="M851.852 272.459H847.957V276.323H851.852V272.459Z" fill="#1E1E25"/>
<path d="M851.852 278.934H847.957V282.797H851.852V278.934Z" fill="#1E1E25"/>
<path d="M851.852 285.412H847.957V289.276H851.852V285.412Z" fill="#1E1E25"/>
<path d="M851.852 291.889H847.957V295.752H851.852V291.889Z" fill="#1E1E25"/>
<path d="M851.852 298.371H847.957V302.235H851.852V298.371Z" fill="#1E1E25"/>
<path d="M817.691 0.71875H811.152V361.999H817.691V0.71875Z" fill="#131219"/>
<path d="M694.703 0.71875H688.164V361.999H694.703V0.71875Z" fill="#131219"/>
<path d="M571.719 0.71875H565.18V361.999H571.719V0.71875Z" fill="#131219"/>
<path d="M334.01 81.7926C351.349 81.7926 365.406 67.736 365.406 50.3963C365.406 33.0566 351.349 19 334.01 19C316.67 19 302.613 33.0566 302.613 50.3963C302.613 67.736 316.67 81.7926 334.01 81.7926Z" fill="#131219"/>
<path d="M334.006 77.089C348.749 77.089 360.7 65.1378 360.7 50.3951C360.7 35.6524 348.749 23.7012 334.006 23.7012C319.264 23.7012 307.312 35.6524 307.312 50.3951C307.312 65.1378 319.264 77.089 334.006 77.089Z" fill="#1E1E25"/>
<path d="M335.266 32.082V50.743L347.633 43.7448" fill="#1E1E25"/>
<path d="M335.266 32.082V50.743L347.633 43.7448" stroke="#131219" stroke-width="4.432" stroke-miterlimit="10" stroke-linecap="round" stroke-linejoin="round"/>
<path d="M462.93 308.82L462.93 102.951L198 102.951L198 308.82L462.93 308.82Z" fill="#131219"/>
<path d="M459.258 106.623H201.672V305.148H459.258V106.623Z" fill="#131219"/>
<path d="M253.354 131.014H223.332V173.45H253.354V131.014Z" fill="#1E1E25"/>
<path d="M292.461 143.545H260.867V188.966H292.461V143.545Z" fill="#1E1E25"/>
<path d="M256.993 240.114L225.668 235.994L219.745 281.029L251.07 285.149L256.993 240.114Z" fill="#1E1E25"/>
<path d="M334.011 235.977H302.418V281.398H334.011V235.977Z" fill="#1E1E25"/>
<path d="M296.254 231.197H264.66V276.619H296.254V231.197Z" fill="#1E1E25"/>
<path d="M388.336 134.104H368.727V153.713H388.336V134.104Z" fill="#1E1E25"/>
<path d="M416.805 140.047L398.492 133.039L391.484 151.352L409.797 158.361L416.805 140.047Z" fill="#1E1E25"/>
<path d="M378.531 136.586C378.531 137.222 378.017 137.736 377.381 137.736C376.745 137.736 376.23 137.222 376.23 136.586C376.23 135.95 376.745 135.436 377.381 135.436C378.017 135.436 378.531 135.952 378.531 136.586Z" fill="#131219"/>
<path d="M401.105 136.586C401.105 137.222 400.591 137.736 399.955 137.736C399.319 137.736 398.805 137.222 398.805 136.586C398.805 135.95 399.319 135.436 399.955 135.436C400.591 135.436 401.105 135.952 401.105 136.586Z" fill="#131219"/>
<path d="M277.816 146.873C277.816 147.509 277.302 148.023 276.666 148.023C276.032 148.023 275.516 147.509 275.516 146.873C275.516 146.237 276.03 145.723 276.666 145.723C277.302 145.723 277.816 146.239 277.816 146.873Z" fill="#131219"/>
<path d="M238.349 135.255C238.985 135.255 239.499 134.74 239.499 134.105C239.499 133.47 238.985 132.955 238.349 132.955C237.714 132.955 237.199 133.47 237.199 134.105C237.199 134.74 237.714 135.255 238.349 135.255Z" fill="#131219"/>
<path d="M228.73 239.232C228.73 239.868 228.216 240.382 227.58 240.382C226.944 240.382 226.43 239.868 226.43 239.232C226.43 238.596 226.944 238.082 227.58 238.082C228.216 238.082 228.73 238.598 228.73 239.232Z" fill="#131219"/>
<path d="M280.459 234.939C281.094 234.939 281.609 234.424 281.609 233.789C281.609 233.154 281.094 232.639 280.459 232.639C279.824 232.639 279.309 233.154 279.309 233.789C279.309 234.424 279.824 234.939 280.459 234.939Z" fill="#131219"/>
<path d="M319.363 238.088C319.363 238.724 318.849 239.238 318.213 239.238C317.577 239.238 317.062 238.724 317.062 238.088C317.062 237.452 317.577 236.938 318.213 236.938C318.849 236.938 319.363 237.454 319.363 238.088Z" fill="#131219"/>
<path d="M439.178 195.479H376.23V234.941H439.178V195.479Z" fill="#131219"/>
<path d="M417.625 240.387H362.668V283.767H417.625V240.387Z" fill="#131219"/>
<path d="M553.994 708.476C791.288 708.476 983.652 697.243 983.652 683.385C983.652 669.527 791.288 658.293 553.994 658.293C316.7 658.293 124.336 669.527 124.336 683.385C124.336 697.243 316.7 708.476 553.994 708.476Z" fill="#1E1E25"/>
<path d="M475.711 420.148V427.386C475.711 429.245 477.788 430.004 479.528 430.004H616.81C618.573 430.004 620.695 429.242 620.695 427.386V420.148H475.711Z" fill="#A492FD"/>
<path opacity="0.4" d="M475.711 420.148V427.386C475.711 429.245 477.788 430.004 479.528 430.004H616.81C618.573 430.004 620.695 429.242 620.695 427.386V420.148H475.711Z" fill="black"/>
<path opacity="0.2" d="M475.711 420.148V427.386C475.711 429.245 477.788 430.004 479.528 430.004H570.073C571.834 430.004 573.926 429.242 573.926 427.386V420.148H475.711Z" fill="black"/>
<path d="M452.743 344.989L469.085 423.103C469.616 425.677 471.993 427.544 474.392 427.544H563.663C566.039 427.544 567.569 425.206 567.017 422.635L550.696 345.119C550.144 342.568 547.789 341.297 545.391 341.297H456.118C453.718 341.294 452.212 342.438 452.743 344.989Z" fill="#A492FD"/>
<path opacity="0.4" d="M452.743 344.989L469.085 423.103C469.616 425.677 471.993 427.544 474.392 427.544H560.629C563.027 427.544 564.536 425.206 564.005 422.635L547.66 345.119C547.129 342.568 544.753 341.297 542.353 341.297H456.116C453.718 341.294 452.212 342.438 452.743 344.989Z" fill="black"/>
<path opacity="0.2" d="M496.758 384.689V384.714C496.758 391.4 503.563 396.835 508.55 396.835C513.539 396.835 516.493 391.4 515.074 384.714C513.652 378.157 508.686 372.814 503.808 372.611C505.23 379.298 502.183 384.714 497.215 384.714C497.11 384.714 496.758 384.714 496.758 384.689Z" fill="black"/>
<path d="M695.414 427.96L697.336 420.312H776.26L812.603 424.138L813.988 427.96H695.414Z" fill="#504B71"/>
<path opacity="0.4" d="M776.26 420.312V427.96H695.414L697.336 420.312H776.26Z" fill="black"/>
<path d="M760.405 386.577C760.755 390.618 757.953 393.898 754.139 393.898H633.236C629.4 393.898 626.015 390.615 625.665 386.577L618.484 305.009C618.405 304.167 618.463 303.369 618.639 302.629C619.32 299.757 621.714 297.688 624.75 297.688H745.654C749.489 297.688 752.874 300.97 753.224 305.009L760.405 386.577Z" fill="#A492FD"/>
<path opacity="0.4" d="M753.71 393.9H633.236C629.4 393.9 626.015 390.617 625.665 386.578L618.484 305.01C618.405 304.168 618.463 303.37 618.639 302.631H739.114C742.928 302.631 746.316 305.913 746.684 309.952L753.865 391.52C753.944 392.362 753.886 393.16 753.71 393.9Z" fill="black"/>
<path d="M670.648 343.869H695.659L688.99 419.332L728.543 425.59V430.844H645.242V425.59L662.307 419.332L670.648 343.869Z" fill="#A492FD"/>
<path opacity="0.3" d="M695.664 343.869L677.133 429.645L662.312 429.182L670.653 343.869H695.664Z" fill="black"/>
<path d="M605.563 682.387H591.713L566.828 454.941H585.202L605.563 682.387Z" fill="#131219"/>
<path opacity="0.1" d="M605.573 682.386H591.715L568.044 466.237L566.824 455.307H585.204L586.197 466.237L605.573 682.386Z" fill="#4C4473"/>
<path opacity="0.2" d="M586.197 465.697H568.044L566.824 455.307H585.204L586.197 465.697Z" fill="black"/>
<path d="M707.201 682.387H693.35L691.09 454.941H709.464L707.201 682.387Z" fill="#131219"/>
<path opacity="0.1" d="M709.469 455.307L709.106 492.003L707.209 682.386H693.35L691.453 492.003L691.09 455.307H709.469Z" fill="#4C4473"/>
<path opacity="0.2" d="M709.469 455.307L709.106 492.412H691.453L691.09 455.307H709.469Z" fill="black"/>
<path d="M854.239 682.387H840.389L815.504 454.941H833.878L854.239 682.387Z" fill="#131219"/>
<path opacity="0.1" d="M854.248 682.386H840.39L816.72 466.237L815.5 455.307H833.879L834.873 466.237L854.248 682.386Z" fill="#4C4473"/>
<path opacity="0.2" d="M834.873 465.697H816.72L815.5 455.307H833.879L834.873 465.697Z" fill="black"/>
<path d="M447.117 682.387H433.27L453.628 454.941H472.002L447.117 682.387Z" fill="#131219"/>
<path opacity="0.1" d="M471.997 455.307L470.777 466.237L447.107 682.386H433.27L452.621 466.237L453.618 455.307H471.997Z" fill="#4C4473"/>
<path opacity="0.2" d="M453.617 455.307H471.997L470.777 465.697H452.621L453.617 455.307Z" fill="black"/>
<path d="M843.383 454.841H444.117C441.326 454.841 439.062 452.456 439.062 449.515V436.557H848.44V449.515C848.44 452.456 846.177 454.841 843.383 454.841Z" fill="#131219"/>
<path opacity="0.6" d="M843.383 454.841H444.117C441.326 454.841 439.062 452.456 439.062 449.515V436.557H848.44V449.515C848.44 452.456 846.177 454.841 843.383 454.841Z" fill="#4C4473"/>
<path opacity="0.2" d="M848.443 435.115H439.062V444.259H848.443V435.115Z" fill="black"/>
<path d="M857.031 438.94H430.483C427.783 438.94 425.594 436.633 425.594 433.791C425.594 430.946 427.783 428.639 430.483 428.639H857.031C859.731 428.639 861.92 430.946 861.92 433.791C861.917 436.633 859.731 438.94 857.031 438.94Z" fill="#131219"/>
<path opacity="0.7" d="M857.031 438.94H430.483C427.783 438.94 425.594 436.633 425.594 433.791C425.594 430.946 427.783 428.639 430.483 428.639H857.031C859.731 428.639 861.92 430.946 861.92 433.791C861.917 436.633 859.731 438.94 857.031 438.94Z" fill="#4C4473"/>
<path d="M214.117 520.356C214.117 520.356 228.117 508.055 240.124 520.356C252.13 532.657 254.446 608.861 254.446 608.861" stroke="#B0A1FF" stroke-width="1.44271" stroke-miterlimit="10"/>
<path d="M255.435 623.579C255.435 623.579 247.181 534.148 278.256 496.566" stroke="#B0A1FF" stroke-width="1.44271" stroke-miterlimit="10"/>
<path d="M252.477 614.151C252.477 614.151 258.834 512.343 235.527 489.754" stroke="#B0A1FF" stroke-width="1.44271" stroke-miterlimit="10"/>
<path d="M255.438 614.153C255.438 614.153 255.98 546.878 273.298 536.418C290.616 525.961 299.445 560.07 299.445 560.07" stroke="#B0A1FF" stroke-width="1.44271" stroke-miterlimit="10"/>
<path d="M248.597 614.154C248.597 614.154 251.423 562.507 238.003 544.049C224.582 525.59 210.461 551.956 210.461 551.956" stroke="#B0A1FF" stroke-width="1.44271" stroke-miterlimit="10"/>
<path d="M253.27 621.07C253.27 621.07 244.593 500.285 258.953 479.818" stroke="#B0A1FF" stroke-width="1.44271" stroke-miterlimit="10"/>
<path d="M288.131 546.217C288.131 546.217 279.495 549.572 282.063 557.491C284.63 565.41 311.938 578.446 311.938 578.446C311.938 578.446 323.375 567.4 312.871 549.434C302.367 531.471 288.365 540.548 288.131 546.217Z" fill="#B0A1FF"/>
<path opacity="0.5" d="M288.131 546.217C288.131 546.217 279.495 549.572 282.063 557.491C284.63 565.41 311.938 578.446 311.938 578.446C311.938 578.446 323.375 567.4 312.871 549.434C302.367 531.471 288.365 540.548 288.131 546.217Z" fill="black"/>
<path d="M250.586 531.14C250.586 531.14 259.782 530.736 260.305 539.085C260.828 547.437 240.384 570.542 240.384 570.542C240.384 570.542 225.795 564.984 228.93 544.143C232.06 523.305 248.301 526.003 250.586 531.14Z" fill="#B0A1FF"/>
<path opacity="0.5" d="M250.586 531.14C250.586 531.14 259.782 530.736 260.305 539.085C260.828 547.437 240.384 570.542 240.384 570.542C240.384 570.542 225.795 564.984 228.93 544.143C232.06 523.305 248.301 526.003 250.586 531.14Z" fill="black"/>
<path d="M242.8 491.164C242.8 491.164 248.93 490.471 248.438 486.536C247.944 482.601 224.605 472.473 210.836 488.851C210.836 488.851 219.653 504.811 232.4 505.02C245.143 505.227 242.8 491.164 242.8 491.164Z" fill="#B0A1FF"/>
<path opacity="0.5" d="M242.8 491.164C242.8 491.164 248.93 490.471 248.438 486.536C247.944 482.601 224.605 472.473 210.836 488.851C210.836 488.851 219.653 504.811 232.4 505.02C245.143 505.227 242.8 491.164 242.8 491.164Z" fill="black"/>
<path d="M254.228 481.607C254.228 481.607 248.676 484.436 247.121 480.821C245.563 477.207 260.289 455.603 280.195 461.828C280.195 461.828 280.722 480.287 270.01 487.569C259.297 494.847 254.228 481.607 254.228 481.607Z" fill="#B0A1FF"/>
<path opacity="0.5" d="M254.228 481.607C254.228 481.607 248.676 484.436 247.121 480.821C245.563 477.207 260.289 455.603 280.195 461.828C280.195 461.828 280.722 480.287 270.01 487.569C259.297 494.847 254.228 481.607 254.228 481.607Z" fill="black"/>
<path d="M225.2 543.033C225.2 543.033 229.43 539.432 224.864 537.675C220.298 535.918 197.892 536.418 197.66 559.806C197.66 559.806 223.755 564.376 226.986 555.467C230.213 546.559 225.2 543.033 225.2 543.033Z" fill="#B0A1FF"/>
<path opacity="0.5" d="M225.2 543.033C225.2 543.033 229.43 539.432 224.864 537.675C220.298 535.918 197.892 536.418 197.66 559.806C197.66 559.806 223.755 564.376 226.986 555.467C230.213 546.559 225.2 543.033 225.2 543.033Z" fill="black"/>
<path d="M278.412 490.58C278.412 490.58 274.181 486.979 278.747 485.222C283.313 483.465 305.719 483.965 305.953 507.353C305.953 507.353 279.859 511.923 276.627 503.013C273.398 494.104 278.412 490.58 278.412 490.58Z" fill="#B0A1FF"/>
<path opacity="0.5" d="M278.412 490.58C278.412 490.58 274.181 486.979 278.747 485.222C283.313 483.465 305.719 483.965 305.953 507.353C305.953 507.353 279.859 511.923 276.627 503.013C273.398 494.104 278.412 490.58 278.412 490.58Z" fill="black"/>
<path d="M264.619 509.419C264.619 509.419 264.246 505.043 267.599 506.758C270.951 508.473 282.631 521.753 270.523 534.354C270.523 534.354 254.225 521.634 257.163 515.01C260.101 508.385 264.619 509.419 264.619 509.419Z" fill="#B0A1FF"/>
<path opacity="0.5" d="M264.619 509.419C264.619 509.419 264.246 505.043 267.599 506.758C270.951 508.473 282.631 521.753 270.523 534.354C270.523 534.354 254.225 521.634 257.163 515.01C260.101 508.385 264.619 509.419 264.619 509.419Z" fill="black"/>
<path d="M221.421 515.658C221.421 515.658 223.951 512.164 220.246 511.732C216.542 511.3 199.941 515.969 203.806 533.433C203.806 533.433 224.031 531.831 224.898 524.577C225.765 517.322 221.421 515.658 221.421 515.658Z" fill="#B0A1FF"/>
<path opacity="0.5" d="M221.421 515.658C221.421 515.658 223.951 512.164 220.246 511.732C216.542 511.3 199.941 515.969 203.806 533.433C203.806 533.433 224.031 531.831 224.898 524.577C225.765 517.322 221.421 515.658 221.421 515.658Z" fill="black"/>
<path d="M289.738 678.983H220.346L212.859 598.922H297.225L289.738 678.983Z" fill="#2D2A3B"/>
<path opacity="0.2" d="M289.738 678.983H220.346L212.859 598.922H297.225L289.738 678.983Z" fill="black"/>
<path d="M300.935 590.09H209.16V607.756H300.935V590.09Z" fill="#2D2A3B"/>
<path opacity="0.4" d="M300.935 590.09H209.16V607.756H300.935V590.09Z" fill="black"/>
</svg>
